<?xml version="1.0" encoding="utf-8"?>
<!-- Generator: Adobe Illustrator 24.3.0, SVG Export Plug-In . SVG Version: 6.00 Build 0)  -->
<svg version="1.1" id="Layer_1" xmlns="http://www.w3.org/2000/svg" xmlns:xlink="http://www.w3.org/1999/xlink" x="0px" y="0px"
	 viewBox="0 0 640 155" style="enable-background:new 0 0 640 155;" xml:space="preserve">
<style type="text/css">
	.st0{fill:#101828;}
</style>
<path class="st0" d="M210.3,49.2C204.7,24.4,183.4,8,159.3,8h-37c-7.1,0-12.5,4.5-14.3,10.9L73.1,149l24.7-0.1
	c6.8,0,12.3-4.5,14.2-10.7l25.8-95.7h19.8c8.4,0,16.2,5.6,18.3,14.8c2.5,10.9-5.9,22.6-18.3,22.6h-10.3c-7,0-12.5,4.6-14.3,10.8
	l-6.4,23.8h32C195.8,114.5,216.9,78.3,210.3,49.2z M53.8,77.2h18.6c6.9,0,12.4-4.4,14.3-10.9l6.2-23.6h-40C30,42.7,9,56.8,1.7,83.8
	C-7,117.6,18.5,149,52,149h12.4l7.1-26.1c1.2-4.4-2.2-8.3-6.4-8.3H53.8C29.1,114.6,28.9,77.2,53.8,77.2z M301.3,42.4h-77.9
	l-3.5,13.4c-2.4,9.6,4.5,18.5,14.2,18.5h57.5c4,0,2.4,4.3,2.1,5.3l-8.6,31.8c-0.4,1.4-0.9,5.3-5.5,5.3h-34.9c-5.3,0-5.3-7.9,0-7.9
	h21.6c6.8,0,12.3-4.6,14.2-10.8l3.5-13.2h-48.4c-39.2,0-43.6,63.8-0.7,63.8l57.5,0.2c11.2,0,20.6-7.2,23.4-17.8l14-51.8
	C334.6,60,320.1,42.4,301.3,42.4z M633.1,8h-18.9c-4.9,0-9.2,3.2-10.4,7.9L568.2,149c20.7,0,39.8-13.8,44.9-34.5l26.5-98.2
	C640.8,12,637.6,8,633.1,8z M396.8,42.7L396.8,42.7l-48.3,0.1l-26.2,98c-1.2,4.4,2.2,8.3,6.4,8.3h18.9c4.8,0,9.2-3,10.4-7.8l17.2-64
	H395c12.5,0,21.4,11.8,18.1,23.4l-10.6,40c-1.2,4.3,1.9,8.3,6.4,8.3H428c4.6,0,9.1-2.9,10.3-7.8l8.8-33.1
	C456.1,75,431.2,42.7,396.8,42.7z M495.1,117.3c-3.6,0-6-3.4-5.1-6.7l8-30c0.9-3.9,3.7-6,7.8-6h32.9c2.6,0,4.6,2.4,3.9,5.1l-0.7,2.6
	c-0.6,2-1.9,3-3.9,3h-21.6c-7,0-12.6,4.6-14.2,10.8l-3.5,13h53.4c10.5,0,20.3-6.6,23.2-17.6l3.2-12c4.9-19.1-9.3-36.8-28.3-36.8
	h-47.3c-17.9,0-33.8,12-38.6,29.6l-10.8,40c-5,17.7,8.3,36.7,28.3,36.7h66.7c6.8,0,12.3-4.5,14.2-10.7l5.7-21H495.1z"/>
</svg>
